# xmcd
#
# Track frame offsets:
#	150
#	10921
#	25436
#	35439
#	49137
#	63041
#	77247
#	88872
#	102933
#	119462
#	129992
#	137603
#	147990
#
# Disc length: 2185 seconds
#
# Revision: 1
# Processed by: cddbd v1.5.1PL2 Copyright (c) Steve Scherf et al.
# Submitted via: audiograbber 1.83.01
#
DISCID=ae08870d
DTITLE=The HillbillyMoon - Explosion
DYEAR=2005
DGENRE=Bluegrass
TTITLE0=Chick Habit
TTITLE1=Rag Doll Baby
TTITLE2=Maniac Lover
TTITLE3=Raw Deal
TTITLE4=I'm Gonna Dry My Eyes
TTITLE5=Johnny Are You Gay?
TTITLE6=Jeanie
TTITLE7=All She Wants
TTITLE8=Fish Outa Water
TTITLE9=Remember  
TTITLE10=All I Can Do Is Cry
TTITLE11=Clarksdale Boogie
TTITLE12=Nothin' But You
EXTD=
EXTT0=
EXTT1=
EXTT2=
EXTT3=
EXTT4=
EXTT5=
EXTT6=
EXTT7=
EXTT8=
EXTT9=
EXTT10=
EXTT11=
EXTT12=
PLAYORDER=
